<svg width="7771" height="1280" viewBox="0 0 7771 1280" fill="none" xmlns="http://www.w3.org/2000/svg">
<rect width="7771" height="1280" fill="#0C002F"/>
<path d="M4713.61 504.38C4701.65 504.38 4690.15 502.463 4679.11 498.63C4668.22 494.797 4659.79 489.737 4653.81 483.45L4660.48 470.34C4666.31 476.167 4674.05 480.92 4683.71 484.6C4693.37 488.127 4703.34 489.89 4713.61 489.89C4728.02 489.89 4738.83 487.283 4746.04 482.07C4753.25 476.703 4756.85 469.803 4756.85 461.37C4756.85 454.93 4754.86 449.793 4750.87 445.96C4747.04 442.127 4742.28 439.213 4736.61 437.22C4730.94 435.073 4723.04 432.773 4712.92 430.32C4700.81 427.253 4691.15 424.34 4683.94 421.58C4676.73 418.667 4670.52 414.297 4665.31 408.47C4660.25 402.643 4657.72 394.747 4657.72 384.78C4657.72 376.653 4659.87 369.293 4664.16 362.7C4668.45 355.953 4675.05 350.587 4683.94 346.6C4692.83 342.613 4703.87 340.62 4717.06 340.62C4726.26 340.62 4735.23 341.923 4743.97 344.53C4752.86 346.983 4760.53 350.433 4766.97 354.88L4761.22 368.45C4754.47 364.003 4747.27 360.707 4739.6 358.56C4731.93 356.26 4724.42 355.11 4717.06 355.11C4702.95 355.11 4692.3 357.87 4685.09 363.39C4678.04 368.757 4674.51 375.733 4674.51 384.32C4674.51 390.76 4676.43 395.973 4680.26 399.96C4684.25 403.793 4689.15 406.783 4694.98 408.93C4700.96 410.923 4708.93 413.147 4718.9 415.6C4730.71 418.513 4740.21 421.427 4747.42 424.34C4754.78 427.1 4760.99 431.393 4766.05 437.22C4771.11 442.893 4773.64 450.637 4773.64 460.45C4773.64 468.577 4771.42 476.013 4766.97 482.76C4762.68 489.353 4756.01 494.643 4746.96 498.63C4737.91 502.463 4726.8 504.38 4713.61 504.38ZM4848.44 381.1C4864.24 381.1 4876.35 385.087 4884.78 393.06C4893.22 400.88 4897.43 412.533 4897.43 428.02V503H4881.79V484.14C4878.11 490.427 4872.67 495.333 4865.46 498.86C4858.41 502.387 4849.98 504.15 4840.16 504.15C4826.67 504.15 4815.94 500.93 4807.96 494.49C4799.99 488.05 4796 479.54 4796 468.96C4796 458.687 4799.68 450.407 4807.04 444.12C4814.56 437.833 4826.44 434.69 4842.69 434.69H4881.1V427.33C4881.1 416.903 4878.19 409.007 4872.36 403.64C4866.54 398.12 4858.03 395.36 4846.83 395.36C4839.17 395.36 4831.81 396.663 4824.75 399.27C4817.7 401.723 4811.64 405.173 4806.58 409.62L4799.22 397.43C4805.36 392.217 4812.72 388.23 4821.3 385.47C4829.89 382.557 4838.94 381.1 4848.44 381.1ZM4842.69 491.27C4851.89 491.27 4859.79 489.2 4866.38 485.06C4872.98 480.767 4877.88 474.633 4881.1 466.66V446.88H4843.15C4822.45 446.88 4812.1 454.087 4812.1 468.5C4812.1 475.553 4814.79 481.15 4820.15 485.29C4825.52 489.277 4833.03 491.27 4842.69 491.27ZM4940.64 332.34H4956.97V503H4940.64V332.34ZM5050.71 504.15C5039.05 504.15 5028.55 501.543 5019.2 496.33C5009.84 490.963 5002.48 483.603 4997.12 474.25C4991.75 464.897 4989.07 454.317 4989.07 442.51C4989.07 430.703 4991.75 420.123 4997.12 410.77C5002.48 401.417 5009.84 394.133 5019.2 388.92C5028.55 383.707 5039.05 381.1 5050.71 381.1C5062.36 381.1 5072.86 383.707 5082.22 388.92C5091.57 394.133 5098.85 401.417 5104.07 410.77C5109.43 420.123 5112.12 430.703 5112.12 442.51C5112.12 454.317 5109.43 464.897 5104.07 474.25C5098.85 483.603 5091.57 490.963 5082.22 496.33C5072.86 501.543 5062.36 504.15 5050.71 504.15ZM5050.71 489.66C5059.29 489.66 5066.96 487.743 5073.71 483.91C5080.61 479.923 5085.97 474.327 5089.81 467.12C5093.64 459.913 5095.56 451.71 5095.56 442.51C5095.56 433.31 5093.64 425.107 5089.81 417.9C5085.97 410.693 5080.61 405.173 5073.71 401.34C5066.96 397.353 5059.29 395.36 5050.71 395.36C5042.12 395.36 5034.38 397.353 5027.48 401.34C5020.73 405.173 5015.36 410.693 5011.38 417.9C5007.54 425.107 5005.63 433.31 5005.63 442.51C5005.63 451.71 5007.54 459.913 5011.38 467.12C5015.36 474.327 5020.73 479.923 5027.48 483.91C5034.38 487.743 5042.12 489.66 5050.71 489.66ZM5144.53 401.57C5141.93 401.57 5139.63 400.65 5137.63 398.81C5135.79 396.817 5134.87 394.44 5134.87 391.68C5134.87 388.92 5135.79 386.62 5137.63 384.78C5139.63 382.94 5141.93 382.02 5144.53 382.02C5147.14 382.02 5149.36 382.94 5151.2 384.78C5153.2 386.62 5154.19 388.92 5154.19 391.68C5154.19 394.44 5153.2 396.817 5151.2 398.81C5149.36 400.65 5147.14 401.57 5144.53 401.57ZM5144.53 503.92C5141.93 503.92 5139.63 503 5137.63 501.16C5135.79 499.167 5134.87 496.79 5134.87 494.03C5134.87 491.27 5135.79 488.97 5137.63 487.13C5139.63 485.29 5141.93 484.37 5144.53 484.37C5147.14 484.37 5149.36 485.29 5151.2 487.13C5153.2 488.97 5154.19 491.27 5154.19 494.03C5154.19 496.79 5153.2 499.167 5151.2 501.16C5149.36 503 5147.14 503.92 5144.53 503.92ZM5355.45 332.34V503H5344.18V474.71C5339.43 484.063 5332.76 491.27 5324.17 496.33C5315.59 501.39 5305.85 503.92 5294.96 503.92C5283.77 503.92 5273.65 501.313 5264.6 496.1C5255.56 490.887 5248.43 483.68 5243.21 474.48C5238.15 465.28 5235.62 454.777 5235.62 442.97C5235.62 431.163 5238.15 420.66 5243.21 411.46C5248.43 402.107 5255.56 394.9 5264.6 389.84C5273.65 384.627 5283.77 382.02 5294.96 382.02C5305.7 382.02 5315.28 384.55 5323.71 389.61C5332.3 394.67 5339.05 401.723 5343.95 410.77V332.34H5355.45ZM5295.65 493.57C5304.85 493.57 5313.06 491.423 5320.26 487.13C5327.62 482.837 5333.37 476.857 5337.51 469.19C5341.81 461.523 5343.95 452.783 5343.95 442.97C5343.95 433.157 5341.81 424.417 5337.51 416.75C5333.37 409.083 5327.62 403.103 5320.26 398.81C5313.06 394.517 5304.85 392.37 5295.65 392.37C5286.45 392.37 5278.17 394.517 5270.81 398.81C5263.61 403.103 5257.86 409.083 5253.56 416.75C5249.42 424.417 5247.35 433.157 5247.35 442.97C5247.35 452.783 5249.42 461.523 5253.56 469.19C5257.86 476.857 5263.61 482.837 5270.81 487.13C5278.17 491.423 5286.45 493.57 5295.65 493.57ZM5504.22 445.73H5400.95C5401.25 455.083 5403.63 463.44 5408.08 470.8C5412.52 478.007 5418.5 483.603 5426.02 487.59C5433.68 491.577 5442.27 493.57 5451.78 493.57C5459.6 493.57 5466.8 492.19 5473.4 489.43C5480.14 486.517 5485.74 482.3 5490.19 476.78L5496.86 484.37C5491.64 490.657 5485.05 495.487 5477.08 498.86C5469.26 502.233 5460.75 503.92 5451.55 503.92C5439.59 503.92 5428.93 501.313 5419.58 496.1C5410.22 490.887 5402.86 483.68 5397.5 474.48C5392.28 465.28 5389.68 454.777 5389.68 442.97C5389.68 431.317 5392.13 420.89 5397.04 411.69C5402.1 402.337 5409 395.053 5417.74 389.84C5426.48 384.627 5436.29 382.02 5447.18 382.02C5458.06 382.02 5467.8 384.627 5476.39 389.84C5485.13 394.9 5491.95 402.03 5496.86 411.23C5501.92 420.43 5504.45 430.857 5504.45 442.51L5504.22 445.73ZM5447.18 392.14C5438.74 392.14 5431.15 394.057 5424.41 397.89C5417.66 401.57 5412.22 406.86 5408.08 413.76C5404.09 420.507 5401.79 428.173 5401.18 436.76H5493.18C5492.72 428.173 5490.42 420.507 5486.28 413.76C5482.14 407.013 5476.69 401.723 5469.95 397.89C5463.2 394.057 5455.61 392.14 5447.18 392.14ZM5599.13 382.02C5610.33 382.02 5620.45 384.627 5629.49 389.84C5638.54 395.053 5645.59 402.26 5650.65 411.46C5655.87 420.66 5658.47 431.163 5658.47 442.97C5658.47 454.777 5655.87 465.357 5650.65 474.71C5645.59 483.91 5638.54 491.117 5629.49 496.33C5620.45 501.39 5610.33 503.92 5599.13 503.92C5588.55 503.92 5578.97 501.467 5570.38 496.56C5561.8 491.5 5555.13 484.523 5550.37 475.63V547.62H5538.87V382.94H5549.91V411.23C5554.67 402.03 5561.34 394.9 5569.92 389.84C5578.66 384.627 5588.4 382.02 5599.13 382.02ZM5598.44 493.57C5607.64 493.57 5615.92 491.423 5623.28 487.13C5630.64 482.837 5636.39 476.857 5640.53 469.19C5644.83 461.523 5646.97 452.783 5646.97 442.97C5646.97 433.157 5644.83 424.417 5640.53 416.75C5636.39 409.083 5630.64 403.103 5623.28 398.81C5615.92 394.517 5607.64 392.37 5598.44 392.37C5589.24 392.37 5580.96 394.517 5573.6 398.81C5566.4 403.103 5560.65 409.083 5556.35 416.75C5552.21 424.417 5550.14 433.157 5550.14 442.97C5550.14 452.783 5552.21 461.523 5556.35 469.19C5560.65 476.857 5566.4 482.837 5573.6 487.13C5580.96 491.423 5589.24 493.57 5598.44 493.57ZM5794.36 445.73H5691.09C5691.4 455.083 5693.77 463.44 5698.22 470.8C5702.67 478.007 5708.65 483.603 5716.16 487.59C5723.83 491.577 5732.41 493.57 5741.92 493.57C5749.74 493.57 5756.95 492.19 5763.54 489.43C5770.29 486.517 5775.88 482.3 5780.33 476.78L5787 484.37C5781.79 490.657 5775.19 495.487 5767.22 498.86C5759.4 502.233 5750.89 503.92 5741.69 503.92C5729.73 503.92 5719.07 501.313 5709.72 496.1C5700.37 490.887 5693.01 483.68 5687.64 474.48C5682.43 465.28 5679.82 454.777 5679.82 442.97C5679.82 431.317 5682.27 420.89 5687.18 411.69C5692.24 402.337 5699.14 395.053 5707.88 389.84C5716.62 384.627 5726.43 382.02 5737.32 382.02C5748.21 382.02 5757.94 384.627 5766.53 389.84C5775.27 394.9 5782.09 402.03 5787 411.23C5792.06 420.43 5794.59 430.857 5794.59 442.51L5794.36 445.73ZM5737.32 392.14C5728.89 392.14 5721.3 394.057 5714.55 397.89C5707.8 401.57 5702.36 406.86 5698.22 413.76C5694.23 420.507 5691.93 428.173 5691.32 436.76H5783.32C5782.86 428.173 5780.56 420.507 5776.42 413.76C5772.28 407.013 5766.84 401.723 5760.09 397.89C5753.34 394.057 5745.75 392.14 5737.32 392.14ZM5887.66 382.02C5902.69 382.02 5914.57 386.39 5923.31 395.13C5932.05 403.87 5936.42 416.443 5936.42 432.85V503H5924.92V433.77C5924.92 420.277 5921.47 410.003 5914.57 402.95C5907.83 395.897 5898.32 392.37 5886.05 392.37C5871.95 392.37 5860.83 396.587 5852.7 405.02C5844.58 413.453 5840.51 424.8 5840.51 439.06V503H5829.01V382.94H5840.05V408.93C5844.19 400.497 5850.33 393.903 5858.45 389.15C5866.73 384.397 5876.47 382.02 5887.66 382.02ZM6089.57 332.34V503H6078.3V474.71C6073.54 484.063 6066.87 491.27 6058.29 496.33C6049.7 501.39 6039.96 503.92 6029.08 503.92C6017.88 503.92 6007.76 501.313 5998.72 496.1C5989.67 490.887 5982.54 483.68 5977.33 474.48C5972.27 465.28 5969.74 454.777 5969.74 442.97C5969.74 431.163 5972.27 420.66 5977.33 411.46C5982.54 402.107 5989.67 394.9 5998.72 389.84C6007.76 384.627 6017.88 382.02 6029.08 382.02C6039.81 382.02 6049.39 384.55 6057.83 389.61C6066.41 394.67 6073.16 401.723 6078.07 410.77V332.34H6089.57ZM6029.77 493.57C6038.97 493.57 6047.17 491.423 6054.38 487.13C6061.74 482.837 6067.49 476.857 6071.63 469.19C6075.92 461.523 6078.07 452.783 6078.07 442.97C6078.07 433.157 6075.92 424.417 6071.63 416.75C6067.49 409.083 6061.74 403.103 6054.38 398.81C6047.17 394.517 6038.97 392.37 6029.77 392.37C6020.57 392.37 6012.29 394.517 6004.93 398.81C5997.72 403.103 5991.97 409.083 5987.68 416.75C5983.54 424.417 5981.47 433.157 5981.47 442.97C5981.47 452.783 5983.54 461.523 5987.68 469.19C5991.97 476.857 5997.72 482.837 6004.93 487.13C6012.29 491.423 6020.57 493.57 6029.77 493.57ZM6238.33 445.73H6135.06C6135.37 455.083 6137.74 463.44 6142.19 470.8C6146.64 478.007 6152.62 483.603 6160.13 487.59C6167.8 491.577 6176.38 493.57 6185.89 493.57C6193.71 493.57 6200.92 492.19 6207.51 489.43C6214.26 486.517 6219.85 482.3 6224.3 476.78L6230.97 484.37C6225.76 490.657 6219.16 495.487 6211.19 498.86C6203.37 502.233 6194.86 503.92 6185.66 503.92C6173.7 503.92 6163.04 501.313 6153.69 496.1C6144.34 490.887 6136.98 483.68 6131.61 474.48C6126.4 465.28 6123.79 454.777 6123.79 442.97C6123.79 431.317 6126.24 420.89 6131.15 411.69C6136.21 402.337 6143.11 395.053 6151.85 389.84C6160.59 384.627 6170.4 382.02 6181.29 382.02C6192.18 382.02 6201.91 384.627 6210.5 389.84C6219.24 394.9 6226.06 402.03 6230.97 411.23C6236.03 420.43 6238.56 430.857 6238.56 442.51L6238.33 445.73ZM6181.29 392.14C6172.86 392.14 6165.27 394.057 6158.52 397.89C6151.77 401.57 6146.33 406.86 6142.19 413.76C6138.2 420.507 6135.9 428.173 6135.29 436.76H6227.29C6226.83 428.173 6224.53 420.507 6220.39 413.76C6216.25 407.013 6210.81 401.723 6204.06 397.89C6197.31 394.057 6189.72 392.14 6181.29 392.14ZM6331.64 382.02C6346.66 382.02 6358.55 386.39 6367.29 395.13C6376.03 403.87 6380.4 416.443 6380.4 432.85V503H6368.9V433.77C6368.9 420.277 6365.45 410.003 6358.55 402.95C6351.8 395.897 6342.29 392.37 6330.03 392.37C6315.92 392.37 6304.8 396.587 6296.68 405.02C6288.55 413.453 6284.49 424.8 6284.49 439.06V503H6272.99V382.94H6284.03V408.93C6288.17 400.497 6294.3 393.903 6302.43 389.15C6310.71 384.397 6320.44 382.02 6331.64 382.02ZM6486.16 495.41C6483.25 498.17 6479.57 500.317 6475.12 501.85C6470.83 503.23 6466.31 503.92 6461.55 503.92C6451.13 503.92 6443.08 501.083 6437.4 495.41C6431.73 489.583 6428.89 481.533 6428.89 471.26V392.83H6406.81V382.94H6428.89V356.72H6440.39V382.94H6478.57V392.83H6440.39V470.11C6440.39 477.93 6442.23 483.91 6445.91 488.05C6449.75 492.037 6455.34 494.03 6462.7 494.03C6470.22 494.03 6476.43 491.807 6481.33 487.36L6486.16 495.41ZM6517.95 484.37C6520.71 484.37 6523.01 485.367 6524.85 487.36C6526.69 489.2 6527.61 491.423 6527.61 494.03C6527.61 495.563 6527.38 497.173 6526.92 498.86C6526.61 500.547 6526.15 502.463 6525.54 504.61L6516.57 535.89H6508.29L6515.88 503.46C6513.58 502.847 6511.74 501.773 6510.36 500.24C6508.98 498.553 6508.29 496.483 6508.29 494.03C6508.29 491.27 6509.21 488.97 6511.05 487.13C6512.89 485.29 6515.19 484.37 6517.95 484.37ZM4678.42 628.16C4682.1 619.42 4687.85 612.75 4695.67 608.15C4703.49 603.397 4713 601.02 4724.19 601.02V612.29L4721.43 612.06C4708.09 612.06 4697.66 616.277 4690.15 624.71C4682.64 632.99 4678.88 644.567 4678.88 659.44V722H4667.38V601.94H4678.42V628.16ZM4855.03 664.73H4751.76C4752.07 674.083 4754.45 682.44 4758.89 689.8C4763.34 697.007 4769.32 702.603 4776.83 706.59C4784.5 710.577 4793.09 712.57 4802.59 712.57C4810.41 712.57 4817.62 711.19 4824.21 708.43C4830.96 705.517 4836.56 701.3 4841 695.78L4847.67 703.37C4842.46 709.657 4835.87 714.487 4827.89 717.86C4820.07 721.233 4811.56 722.92 4802.36 722.92C4790.4 722.92 4779.75 720.313 4770.39 715.1C4761.04 709.887 4753.68 702.68 4748.31 693.48C4743.1 684.28 4740.49 673.777 4740.49 661.97C4740.49 650.317 4742.95 639.89 4747.85 630.69C4752.91 621.337 4759.81 614.053 4768.55 608.84C4777.29 603.627 4787.11 601.02 4797.99 601.02C4808.88 601.02 4818.62 603.627 4827.2 608.84C4835.94 613.9 4842.77 621.03 4847.67 630.23C4852.73 639.43 4855.26 649.857 4855.26 661.51L4855.03 664.73ZM4797.99 611.14C4789.56 611.14 4781.97 613.057 4775.22 616.89C4768.48 620.57 4763.03 625.86 4758.89 632.76C4754.91 639.507 4752.61 647.173 4751.99 655.76H4843.99C4843.53 647.173 4841.23 639.507 4837.09 632.76C4832.95 626.013 4827.51 620.723 4820.76 616.89C4814.02 613.057 4806.43 611.14 4797.99 611.14ZM4949.95 601.02C4961.14 601.02 4971.26 603.627 4980.31 608.84C4989.36 614.053 4996.41 621.26 5001.47 630.46C5006.68 639.66 5009.29 650.163 5009.29 661.97C5009.29 673.777 5006.68 684.357 5001.47 693.71C4996.41 702.91 4989.36 710.117 4980.31 715.33C4971.26 720.39 4961.14 722.92 4949.95 722.92C4939.37 722.92 4929.79 720.467 4921.2 715.56C4912.61 710.5 4905.94 703.523 4901.19 694.63V766.62H4889.69V601.94H4900.73V630.23C4905.48 621.03 4912.15 613.9 4920.74 608.84C4929.48 603.627 4939.22 601.02 4949.95 601.02ZM4949.26 712.57C4958.46 712.57 4966.74 710.423 4974.1 706.13C4981.46 701.837 4987.21 695.857 4991.35 688.19C4995.64 680.523 4997.79 671.783 4997.79 661.97C4997.79 652.157 4995.64 643.417 4991.35 635.75C4987.21 628.083 4981.46 622.103 4974.1 617.81C4966.74 613.517 4958.46 611.37 4949.26 611.37C4940.06 611.37 4931.78 613.517 4924.42 617.81C4917.21 622.103 4911.46 628.083 4907.17 635.75C4903.03 643.417 4900.96 652.157 4900.96 661.97C4900.96 671.783 4903.03 680.523 4907.17 688.19C4911.46 695.857 4917.21 701.837 4924.42 706.13C4931.78 710.423 4940.06 712.57 4949.26 712.57ZM5054.78 628.16C5058.46 619.42 5064.21 612.75 5072.03 608.15C5079.85 603.397 5089.36 601.02 5100.55 601.02V612.29L5097.79 612.06C5084.45 612.06 5074.03 616.277 5066.51 624.71C5059 632.99 5055.24 644.567 5055.24 659.44V722H5043.74V601.94H5054.78V628.16ZM5176.89 722.92C5165.54 722.92 5155.27 720.313 5146.07 715.1C5137.02 709.887 5129.89 702.68 5124.68 693.48C5119.46 684.127 5116.86 673.623 5116.86 661.97C5116.86 650.317 5119.46 639.89 5124.68 630.69C5129.89 621.337 5137.02 614.053 5146.07 608.84C5155.27 603.627 5165.54 601.02 5176.89 601.02C5188.23 601.02 5198.43 603.627 5207.48 608.84C5216.68 614.053 5223.88 621.337 5229.1 630.69C5234.31 639.89 5236.92 650.317 5236.92 661.97C5236.92 673.623 5234.31 684.127 5229.1 693.48C5223.88 702.68 5216.68 709.887 5207.48 715.1C5198.43 720.313 5188.23 722.92 5176.89 722.92ZM5176.89 712.57C5186.09 712.57 5194.29 710.423 5201.5 706.13C5208.86 701.837 5214.61 695.857 5218.75 688.19C5223.04 680.523 5225.19 671.783 5225.19 661.97C5225.19 652.157 5223.04 643.417 5218.75 635.75C5214.61 628.083 5208.86 622.103 5201.5 617.81C5194.29 613.517 5186.09 611.37 5176.89 611.37C5167.69 611.37 5159.41 613.517 5152.05 617.81C5144.84 622.103 5139.09 628.083 5134.8 635.75C5130.66 643.417 5128.59 652.157 5128.59 661.97C5128.59 671.783 5130.66 680.523 5134.8 688.19C5139.09 695.857 5144.84 701.837 5152.05 706.13C5159.41 710.423 5167.69 712.57 5176.89 712.57ZM5378.16 551.34V722H5366.89V693.71C5362.14 703.063 5355.47 710.27 5346.88 715.33C5338.3 720.39 5328.56 722.92 5317.67 722.92C5306.48 722.92 5296.36 720.313 5287.31 715.1C5278.27 709.887 5271.14 702.68 5265.92 693.48C5260.86 684.28 5258.33 673.777 5258.33 661.97C5258.33 650.163 5260.86 639.66 5265.92 630.46C5271.14 621.107 5278.27 613.9 5287.31 608.84C5296.36 603.627 5306.48 601.02 5317.67 601.02C5328.41 601.02 5337.99 603.55 5346.42 608.61C5355.01 613.67 5361.76 620.723 5366.66 629.77V551.34H5378.16ZM5318.36 712.57C5327.56 712.57 5335.77 710.423 5342.97 706.13C5350.33 701.837 5356.08 695.857 5360.22 688.19C5364.52 680.523 5366.66 671.783 5366.66 661.97C5366.66 652.157 5364.52 643.417 5360.22 635.75C5356.08 628.083 5350.33 622.103 5342.97 617.81C5335.77 613.517 5327.56 611.37 5318.36 611.37C5309.16 611.37 5300.88 613.517 5293.52 617.81C5286.32 622.103 5280.57 628.083 5276.27 635.75C5272.13 643.417 5270.06 652.157 5270.06 661.97C5270.06 671.783 5272.13 680.523 5276.27 688.19C5280.57 695.857 5286.32 701.837 5293.52 706.13C5300.88 710.423 5309.16 712.57 5318.36 712.57ZM5530.61 601.94V722H5519.57V696.24C5515.58 704.673 5509.68 711.267 5501.86 716.02C5494.04 720.62 5484.84 722.92 5474.26 722.92C5458.62 722.92 5446.35 718.55 5437.46 709.81C5428.57 701.07 5424.12 688.497 5424.12 672.09V601.94H5435.62V671.17C5435.62 684.663 5439.07 694.937 5445.97 701.99C5452.87 709.043 5462.61 712.57 5475.18 712.57C5488.67 712.57 5499.33 708.353 5507.15 699.92C5515.12 691.487 5519.11 680.14 5519.11 665.88V601.94H5530.61ZM5625.82 722.92C5614.16 722.92 5603.74 720.313 5594.54 715.1C5585.34 709.887 5578.13 702.68 5572.92 693.48C5567.7 684.127 5565.1 673.623 5565.1 661.97C5565.1 650.163 5567.7 639.66 5572.92 630.46C5578.13 621.107 5585.34 613.9 5594.54 608.84C5603.74 603.627 5614.16 601.02 5625.82 601.02C5635.48 601.02 5644.22 602.937 5652.04 606.77C5660.01 610.45 5666.45 615.893 5671.36 623.1L5662.85 629.31C5658.55 623.33 5653.19 618.883 5646.75 615.97C5640.46 612.903 5633.48 611.37 5625.82 611.37C5616.46 611.37 5608.03 613.517 5600.52 617.81C5593.16 621.95 5587.33 627.853 5583.04 635.52C5578.9 643.187 5576.83 652.003 5576.83 661.97C5576.83 671.937 5578.9 680.753 5583.04 688.42C5587.33 696.087 5593.16 702.067 5600.52 706.36C5608.03 710.5 5616.46 712.57 5625.82 712.57C5633.48 712.57 5640.46 711.113 5646.75 708.2C5653.19 705.133 5658.55 700.61 5662.85 694.63L5671.36 700.84C5666.45 708.047 5660.01 713.567 5652.04 717.4C5644.22 721.08 5635.48 722.92 5625.82 722.92ZM5704.64 601.94H5716.14V722H5704.64V601.94ZM5710.39 572.73C5707.78 572.73 5705.56 571.887 5703.72 570.2C5701.88 568.36 5700.96 566.137 5700.96 563.53C5700.96 560.923 5701.88 558.7 5703.72 556.86C5705.56 555.02 5707.78 554.1 5710.39 554.1C5712.99 554.1 5715.22 555.02 5717.06 556.86C5718.9 558.547 5719.82 560.693 5719.82 563.3C5719.82 565.907 5718.9 568.13 5717.06 569.97C5715.22 571.81 5712.99 572.73 5710.39 572.73ZM5823.72 601.02C5834.91 601.02 5845.03 603.627 5854.08 608.84C5863.12 613.9 5870.18 621.107 5875.24 630.46C5880.45 639.66 5883.06 650.163 5883.06 661.97C5883.06 673.777 5880.45 684.28 5875.24 693.48C5870.18 702.68 5863.12 709.887 5854.08 715.1C5845.03 720.313 5834.91 722.92 5823.72 722.92C5812.98 722.92 5803.25 720.39 5794.51 715.33C5785.92 710.117 5779.25 702.91 5774.5 693.71V722H5763.46V551.34H5774.96V629.31C5779.71 620.417 5786.38 613.517 5794.97 608.61C5803.55 603.55 5813.14 601.02 5823.72 601.02ZM5823.03 712.57C5832.23 712.57 5840.51 710.423 5847.87 706.13C5855.23 701.837 5860.98 695.857 5865.12 688.19C5869.41 680.523 5871.56 671.783 5871.56 661.97C5871.56 652.157 5869.41 643.417 5865.12 635.75C5860.98 628.083 5855.23 622.103 5847.87 617.81C5840.51 613.517 5832.23 611.37 5823.03 611.37C5813.83 611.37 5805.55 613.517 5798.19 617.81C5790.98 622.103 5785.23 628.083 5780.94 635.75C5776.8 643.417 5774.73 652.157 5774.73 661.97C5774.73 671.783 5776.8 680.523 5780.94 688.19C5785.23 695.857 5790.98 701.837 5798.19 706.13C5805.55 710.423 5813.83 712.57 5823.03 712.57ZM5917.51 551.34H5929.01V722H5917.51V551.34ZM6077.76 664.73H5974.49C5974.8 674.083 5977.17 682.44 5981.62 689.8C5986.07 697.007 5992.05 702.603 5999.56 706.59C6007.23 710.577 6015.81 712.57 6025.32 712.57C6033.14 712.57 6040.35 711.19 6046.94 708.43C6053.69 705.517 6059.28 701.3 6063.73 695.78L6070.4 703.37C6065.19 709.657 6058.59 714.487 6050.62 717.86C6042.8 721.233 6034.29 722.92 6025.09 722.92C6013.13 722.92 6002.47 720.313 5993.12 715.1C5983.77 709.887 5976.41 702.68 5971.04 693.48C5965.83 684.28 5963.22 673.777 5963.22 661.97C5963.22 650.317 5965.67 639.89 5970.58 630.69C5975.64 621.337 5982.54 614.053 5991.28 608.84C6000.02 603.627 6009.83 601.02 6020.72 601.02C6031.61 601.02 6041.34 603.627 6049.93 608.84C6058.67 613.9 6065.49 621.03 6070.4 630.23C6075.46 639.43 6077.99 649.857 6077.99 661.51L6077.76 664.73ZM6020.72 611.14C6012.29 611.14 6004.7 613.057 5997.95 616.89C5991.2 620.57 5985.76 625.86 5981.62 632.76C5977.63 639.507 5975.33 647.173 5974.72 655.76H6066.72C6066.26 647.173 6063.96 639.507 6059.82 632.76C6055.68 626.013 6050.24 620.723 6043.49 616.89C6036.74 613.057 6029.15 611.14 6020.72 611.14ZM6111.04 703.37C6113.8 703.37 6116.1 704.367 6117.94 706.36C6119.78 708.2 6120.7 710.423 6120.7 713.03C6120.7 714.563 6120.47 716.173 6120.01 717.86C6119.7 719.547 6119.24 721.463 6118.63 723.61L6109.66 754.89H6101.38L6108.97 722.46C6106.67 721.847 6104.83 720.773 6103.45 719.24C6102.07 717.553 6101.38 715.483 6101.38 713.03C6101.38 710.27 6102.3 707.97 6104.14 706.13C6105.98 704.29 6108.28 703.37 6111.04 703.37ZM6245.6 722.92C6235.94 722.92 6226.74 721.463 6218 718.55C6209.26 715.637 6202.43 711.957 6197.53 707.51L6202.82 698.31C6207.72 702.45 6214.01 705.9 6221.68 708.66C6229.5 711.42 6237.62 712.8 6246.06 712.8C6258.17 712.8 6267.06 710.807 6272.74 706.82C6278.56 702.833 6281.48 697.313 6281.48 690.26C6281.48 685.2 6279.87 681.213 6276.65 678.3C6273.58 675.387 6269.75 673.24 6265.15 671.86C6260.55 670.48 6254.18 669.023 6246.06 667.49C6236.55 665.803 6228.88 663.963 6223.06 661.97C6217.23 659.977 6212.25 656.757 6208.11 652.31C6203.97 647.863 6201.9 641.73 6201.9 633.91C6201.9 624.403 6205.81 616.583 6213.63 610.45C6221.6 604.163 6232.87 601.02 6247.44 601.02C6255.1 601.02 6262.69 602.093 6270.21 604.24C6277.72 606.387 6283.85 609.223 6288.61 612.75L6283.32 621.95C6278.41 618.423 6272.81 615.74 6266.53 613.9C6260.24 612.06 6253.8 611.14 6247.21 611.14C6236.01 611.14 6227.58 613.21 6221.91 617.35C6216.23 621.49 6213.4 626.933 6213.4 633.68C6213.4 639.047 6215.01 643.263 6218.23 646.33C6221.45 649.243 6225.36 651.467 6229.96 653C6234.71 654.38 6241.3 655.913 6249.74 657.6C6259.09 659.287 6266.6 661.127 6272.28 663.12C6278.1 664.96 6283.01 668.027 6287 672.32C6290.98 676.613 6292.98 682.517 6292.98 690.03C6292.98 699.997 6288.84 707.97 6280.56 713.95C6272.28 719.93 6260.62 722.92 6245.6 722.92ZM6383.49 714.41C6380.58 717.17 6376.9 719.317 6372.45 720.85C6368.16 722.23 6363.63 722.92 6358.88 722.92C6348.45 722.92 6340.4 720.083 6334.73 714.41C6329.06 708.583 6326.22 700.533 6326.22 690.26V611.83H6304.14V601.94H6326.22V575.72H6337.72V601.94H6375.9V611.83H6337.72V689.11C6337.72 696.93 6339.56 702.91 6343.24 707.05C6347.07 711.037 6352.67 713.03 6360.03 713.03C6367.54 713.03 6373.75 710.807 6378.66 706.36L6383.49 714.41ZM6454.89 601.02C6469.76 601.02 6481.19 604.853 6489.16 612.52C6497.13 620.033 6501.12 631.15 6501.12 645.87V722H6490.08V700.61C6486.25 707.663 6480.65 713.183 6473.29 717.17C6465.93 721.003 6457.11 722.92 6446.84 722.92C6433.5 722.92 6422.92 719.777 6415.1 713.49C6407.43 707.203 6403.6 698.923 6403.6 688.65C6403.6 678.683 6407.13 670.633 6414.18 664.5C6421.39 658.213 6432.81 655.07 6448.45 655.07H6489.62V645.41C6489.62 634.217 6486.55 625.707 6480.42 619.88C6474.44 614.053 6465.62 611.14 6453.97 611.14C6446 611.14 6438.33 612.52 6430.97 615.28C6423.76 618.04 6417.63 621.72 6412.57 626.32L6406.82 618.04C6412.8 612.673 6420.01 608.533 6428.44 605.62C6436.87 602.553 6445.69 601.02 6454.89 601.02ZM6448.45 713.49C6458.42 713.49 6466.85 711.19 6473.75 706.59C6480.8 701.99 6486.09 695.32 6489.62 686.58V664.04H6448.68C6436.87 664.04 6428.29 666.187 6422.92 670.48C6417.71 674.773 6415.1 680.677 6415.1 688.19C6415.1 696.01 6418.01 702.22 6423.84 706.82C6429.67 711.267 6437.87 713.49 6448.45 713.49ZM6606.92 714.41C6604.01 717.17 6600.33 719.317 6595.88 720.85C6591.59 722.23 6587.06 722.92 6582.31 722.92C6571.88 722.92 6563.83 720.083 6558.16 714.41C6552.49 708.583 6549.65 700.533 6549.65 690.26V611.83H6527.57V601.94H6549.65V575.72H6561.15V601.94H6599.33V611.83H6561.15V689.11C6561.15 696.93 6562.99 702.91 6566.67 707.05C6570.5 711.037 6576.1 713.03 6583.46 713.03C6590.97 713.03 6597.18 710.807 6602.09 706.36L6606.92 714.41ZM6637.84 601.94H6649.34V722H6637.84V601.94ZM6643.59 572.73C6640.99 572.73 6638.76 571.887 6636.92 570.2C6635.08 568.36 6634.16 566.137 6634.16 563.53C6634.16 560.923 6635.08 558.7 6636.92 556.86C6638.76 555.02 6640.99 554.1 6643.59 554.1C6646.2 554.1 6648.42 555.02 6650.26 556.86C6652.1 558.547 6653.02 560.693 6653.02 563.3C6653.02 565.907 6652.1 568.13 6650.26 569.97C6648.42 571.81 6646.2 572.73 6643.59 572.73ZM6744.27 722.92C6732.62 722.92 6722.19 720.313 6712.99 715.1C6703.79 709.887 6696.59 702.68 6691.37 693.48C6686.16 684.127 6683.55 673.623 6683.55 661.97C6683.55 650.163 6686.16 639.66 6691.37 630.46C6696.59 621.107 6703.79 613.9 6712.99 608.84C6722.19 603.627 6732.62 601.02 6744.27 601.02C6753.93 601.02 6762.67 602.937 6770.49 606.77C6778.47 610.45 6784.91 615.893 6789.81 623.1L6781.3 629.31C6777.01 623.33 6771.64 618.883 6765.2 615.97C6758.92 612.903 6751.94 611.37 6744.27 611.37C6734.92 611.37 6726.49 613.517 6718.97 617.81C6711.61 621.95 6705.79 627.853 6701.49 635.52C6697.35 643.187 6695.28 652.003 6695.28 661.97C6695.28 671.937 6697.35 680.753 6701.49 688.42C6705.79 696.087 6711.61 702.067 6718.97 706.36C6726.49 710.5 6734.92 712.57 6744.27 712.57C6751.94 712.57 6758.92 711.113 6765.2 708.2C6771.64 705.133 6777.01 700.61 6781.3 694.63L6789.81 700.84C6784.91 708.047 6778.47 713.567 6770.49 717.4C6762.67 721.08 6753.93 722.92 6744.27 722.92ZM4739.37 942.15C4723.58 942.15 4709.32 938.623 4696.59 931.57C4683.86 924.363 4673.82 914.55 4666.46 902.13C4659.25 889.71 4655.65 875.833 4655.65 860.5C4655.65 845.167 4659.25 831.29 4666.46 818.87C4673.82 806.45 4683.86 796.713 4696.59 789.66C4709.32 782.453 4723.58 778.85 4739.37 778.85C4755.16 778.85 4769.42 782.377 4782.15 789.43C4794.88 796.483 4804.84 806.22 4812.05 818.64C4819.41 831.06 4823.09 845.013 4823.09 860.5C4823.09 875.987 4819.41 889.94 4812.05 902.36C4804.84 914.78 4794.88 924.517 4782.15 931.57C4769.42 938.623 4755.16 942.15 4739.37 942.15ZM4739.37 931.34C4752.86 931.34 4765.05 928.273 4775.94 922.14C4786.83 916.007 4795.41 907.573 4801.7 896.84C4807.99 885.953 4811.13 873.84 4811.13 860.5C4811.13 847.16 4807.99 835.123 4801.7 824.39C4795.41 813.503 4786.83 804.993 4775.94 798.86C4765.05 792.727 4752.86 789.66 4739.37 789.66C4725.88 789.66 4713.61 792.727 4702.57 798.86C4691.68 804.993 4683.1 813.503 4676.81 824.39C4670.52 835.123 4667.38 847.16 4667.38 860.5C4667.38 873.84 4670.52 885.953 4676.81 896.84C4683.1 907.573 4691.68 916.007 4702.57 922.14C4713.61 928.273 4725.88 931.34 4739.37 931.34ZM4904.94 942.15C4893.14 942.15 4881.87 940.157 4871.13 936.17C4860.55 932.03 4852.27 926.74 4846.29 920.3L4851.58 911.56C4857.26 917.54 4864.85 922.447 4874.35 926.28C4884.01 929.96 4894.13 931.8 4904.71 931.8C4920.05 931.8 4931.62 928.887 4939.44 923.06C4947.26 917.233 4951.17 909.643 4951.17 900.29C4951.17 893.083 4949.1 887.333 4944.96 883.04C4940.82 878.747 4935.69 875.45 4929.55 873.15C4923.42 870.85 4915.14 868.473 4904.71 866.02C4892.91 863.107 4883.4 860.27 4876.19 857.51C4869.14 854.75 4863.08 850.533 4858.02 844.86C4853.12 839.033 4850.66 831.29 4850.66 821.63C4850.66 813.81 4852.73 806.68 4856.87 800.24C4861.01 793.647 4867.3 788.433 4875.73 784.6C4884.32 780.767 4894.98 778.85 4907.7 778.85C4916.6 778.85 4925.34 780.153 4933.92 782.76C4942.51 785.367 4949.95 788.893 4956.23 793.34L4951.86 802.77C4945.42 798.323 4938.29 794.95 4930.47 792.65C4922.81 790.35 4915.22 789.2 4907.7 789.2C4892.83 789.2 4881.56 792.19 4873.89 798.17C4866.23 804.15 4862.39 811.893 4862.39 821.4C4862.39 828.607 4864.46 834.357 4868.6 838.65C4872.74 842.943 4877.88 846.24 4884.01 848.54C4890.15 850.84 4898.5 853.293 4909.08 855.9C4920.89 858.813 4930.32 861.65 4937.37 864.41C4944.43 867.17 4950.41 871.387 4955.31 877.06C4960.37 882.58 4962.9 890.093 4962.9 899.6C4962.9 907.42 4960.76 914.55 4956.46 920.99C4952.32 927.43 4945.88 932.567 4937.14 936.4C4928.4 940.233 4917.67 942.15 4904.94 942.15ZM5103.48 941.92C5091.83 941.92 5081.4 939.313 5072.2 934.1C5063 928.887 5055.8 921.68 5050.58 912.48C5045.37 903.127 5042.76 892.623 5042.76 880.97C5042.76 869.163 5045.37 858.66 5050.58 849.46C5055.8 840.107 5063 832.9 5072.2 827.84C5081.4 822.627 5091.83 820.02 5103.48 820.02C5113.14 820.02 5121.88 821.937 5129.7 825.77C5137.68 829.45 5144.12 834.893 5149.02 842.1L5140.51 848.31C5136.22 842.33 5130.85 837.883 5124.41 834.97C5118.13 831.903 5111.15 830.37 5103.48 830.37C5094.13 830.37 5085.7 832.517 5078.18 836.81C5070.82 840.95 5065 846.853 5060.7 854.52C5056.56 862.187 5054.49 871.003 5054.49 880.97C5054.49 890.937 5056.56 899.753 5060.7 907.42C5065 915.087 5070.82 921.067 5078.18 925.36C5085.7 929.5 5094.13 931.57 5103.48 931.57C5111.15 931.57 5118.13 930.113 5124.41 927.2C5130.85 924.133 5136.22 919.61 5140.51 913.63L5149.02 919.84C5144.12 927.047 5137.68 932.567 5129.7 936.4C5121.88 940.08 5113.14 941.92 5103.48 941.92ZM5227.2 941.92C5215.85 941.92 5205.58 939.313 5196.38 934.1C5187.33 928.887 5180.2 921.68 5174.99 912.48C5169.78 903.127 5167.17 892.623 5167.17 880.97C5167.17 869.317 5169.78 858.89 5174.99 849.69C5180.2 840.337 5187.33 833.053 5196.38 827.84C5205.58 822.627 5215.85 820.02 5227.2 820.02C5238.55 820.02 5248.74 822.627 5257.79 827.84C5266.99 833.053 5274.2 840.337 5279.41 849.69C5284.62 858.89 5287.23 869.317 5287.23 880.97C5287.23 892.623 5284.62 903.127 5279.41 912.48C5274.2 921.68 5266.99 928.887 5257.79 934.1C5248.74 939.313 5238.55 941.92 5227.2 941.92ZM5227.2 931.57C5236.4 931.57 5244.6 929.423 5251.81 925.13C5259.17 920.837 5264.92 914.857 5269.06 907.19C5273.35 899.523 5275.5 890.783 5275.5 880.97C5275.5 871.157 5273.35 862.417 5269.06 854.75C5264.92 847.083 5259.17 841.103 5251.81 836.81C5244.6 832.517 5236.4 830.37 5227.2 830.37C5218 830.37 5209.72 832.517 5202.36 836.81C5195.15 841.103 5189.4 847.083 5185.11 854.75C5180.97 862.417 5178.9 871.157 5178.9 880.97C5178.9 890.783 5180.97 899.523 5185.11 907.19C5189.4 914.857 5195.15 920.837 5202.36 925.13C5209.72 929.423 5218 931.57 5227.2 931.57ZM5380.41 820.02C5395.43 820.02 5407.32 824.39 5416.06 833.13C5424.8 841.87 5429.17 854.443 5429.17 870.85V941H5417.67V871.77C5417.67 858.277 5414.22 848.003 5407.32 840.95C5400.57 833.897 5391.06 830.37 5378.8 830.37C5364.69 830.37 5353.57 834.587 5345.45 843.02C5337.32 851.453 5333.26 862.8 5333.26 877.06V941H5321.76V820.94H5332.8V846.93C5336.94 838.497 5343.07 831.903 5351.2 827.15C5359.48 822.397 5369.21 820.02 5380.41 820.02ZM5511.47 779.31C5496.45 779.31 5488.93 787.36 5488.93 803.46V820.94H5527.34V830.83H5489.16V941H5477.66V830.83H5455.58V820.94H5477.66V802.54C5477.66 792.42 5480.58 784.37 5486.4 778.39C5492.23 772.41 5500.43 769.42 5511.01 769.42C5515.61 769.42 5519.98 770.11 5524.12 771.49C5528.42 772.717 5531.94 774.633 5534.7 777.24L5530.1 785.98C5525.2 781.533 5518.99 779.31 5511.47 779.31ZM5569.2 820.94H5580.7V941H5569.2V820.94ZM5574.95 791.73C5572.35 791.73 5570.12 790.887 5568.28 789.2C5566.44 787.36 5565.52 785.137 5565.52 782.53C5565.52 779.923 5566.44 777.7 5568.28 775.86C5570.12 774.02 5572.35 773.1 5574.95 773.1C5577.56 773.1 5579.78 774.02 5581.62 775.86C5583.46 777.547 5584.38 779.693 5584.38 782.3C5584.38 784.907 5583.46 787.13 5581.62 788.97C5579.78 790.81 5577.56 791.73 5574.95 791.73ZM5736.17 820.94V928.12C5736.17 948.053 5731.34 962.773 5721.68 972.28C5712.02 981.787 5697.45 986.54 5677.98 986.54C5666.94 986.54 5656.51 984.853 5646.7 981.48C5636.89 978.107 5628.99 973.43 5623.01 967.45L5629.22 958.71C5635.2 964.23 5642.41 968.523 5650.84 971.59C5659.27 974.657 5668.24 976.19 5677.75 976.19C5693.7 976.19 5705.5 972.357 5713.17 964.69C5720.84 957.177 5724.67 945.447 5724.67 929.5V909.26C5719.76 918 5712.94 924.747 5704.2 929.5C5695.46 934.253 5685.65 936.63 5674.76 936.63C5663.57 936.63 5653.37 934.177 5644.17 929.27C5635.12 924.21 5627.99 917.233 5622.78 908.34C5617.57 899.447 5614.96 889.403 5614.96 878.21C5614.96 867.017 5617.57 856.973 5622.78 848.08C5627.99 839.187 5635.12 832.287 5644.17 827.38C5653.37 822.473 5663.57 820.02 5674.76 820.02C5685.8 820.02 5695.77 822.473 5704.66 827.38C5713.55 832.287 5720.38 839.187 5725.13 848.08V820.94H5736.17ZM5675.68 926.28C5685.03 926.28 5693.47 924.287 5700.98 920.3C5708.49 916.16 5714.32 910.487 5718.46 903.28C5722.75 895.92 5724.9 887.563 5724.9 878.21C5724.9 868.857 5722.75 860.577 5718.46 853.37C5714.32 846.163 5708.49 840.567 5700.98 836.58C5693.47 832.44 5685.03 830.37 5675.68 830.37C5666.33 830.37 5657.89 832.44 5650.38 836.58C5643.02 840.567 5637.19 846.163 5632.9 853.37C5628.76 860.577 5626.69 868.857 5626.69 878.21C5626.69 887.563 5628.76 895.92 5632.9 903.28C5637.19 910.487 5643.02 916.16 5650.38 920.3C5657.89 924.287 5666.33 926.28 5675.68 926.28ZM5888.81 820.94V941H5877.77V915.24C5873.78 923.673 5867.88 930.267 5860.06 935.02C5852.24 939.62 5843.04 941.92 5832.46 941.92C5816.82 941.92 5804.55 937.55 5795.66 928.81C5786.76 920.07 5782.32 907.497 5782.32 891.09V820.94H5793.82V890.17C5793.82 903.663 5797.27 913.937 5804.17 920.99C5811.07 928.043 5820.8 931.57 5833.38 931.57C5846.87 931.57 5857.53 927.353 5865.35 918.92C5873.32 910.487 5877.31 899.14 5877.31 884.88V820.94H5888.81ZM5947.45 847.16C5951.13 838.42 5956.88 831.75 5964.7 827.15C5972.52 822.397 5982.02 820.02 5993.22 820.02V831.29L5990.46 831.06C5977.12 831.06 5966.69 835.277 5959.18 843.71C5951.66 851.99 5947.91 863.567 5947.91 878.44V941H5936.41V820.94H5947.45V847.16ZM6064.23 820.02C6079.1 820.02 6090.53 823.853 6098.5 831.52C6106.47 839.033 6110.46 850.15 6110.46 864.87V941H6099.42V919.61C6095.59 926.663 6089.99 932.183 6082.63 936.17C6075.27 940.003 6066.45 941.92 6056.18 941.92C6042.84 941.92 6032.26 938.777 6024.44 932.49C6016.77 926.203 6012.94 917.923 6012.94 907.65C6012.94 897.683 6016.47 889.633 6023.52 883.5C6030.73 877.213 6042.15 874.07 6057.79 874.07H6098.96V864.41C6098.96 853.217 6095.89 844.707 6089.76 838.88C6083.78 833.053 6074.96 830.14 6063.31 830.14C6055.34 830.14 6047.67 831.52 6040.31 834.28C6033.1 837.04 6026.97 840.72 6021.91 845.32L6016.16 837.04C6022.14 831.673 6029.35 827.533 6037.78 824.62C6046.21 821.553 6055.03 820.02 6064.23 820.02ZM6057.79 932.49C6067.76 932.49 6076.19 930.19 6083.09 925.59C6090.14 920.99 6095.43 914.32 6098.96 905.58V883.04H6058.02C6046.21 883.04 6037.63 885.187 6032.26 889.48C6027.05 893.773 6024.44 899.677 6024.44 907.19C6024.44 915.01 6027.35 921.22 6033.18 925.82C6039.01 930.267 6047.21 932.49 6057.79 932.49ZM6216.26 933.41C6213.35 936.17 6209.67 938.317 6205.22 939.85C6200.93 941.23 6196.41 941.92 6191.65 941.92C6181.23 941.92 6173.18 939.083 6167.5 933.41C6161.83 927.583 6158.99 919.533 6158.99 909.26V830.83H6136.91V820.94H6158.99V794.72H6170.49V820.94H6208.67V830.83H6170.49V908.11C6170.49 915.93 6172.33 921.91 6176.01 926.05C6179.85 930.037 6185.44 932.03 6192.8 932.03C6200.32 932.03 6206.53 929.807 6211.43 925.36L6216.26 933.41ZM6247.18 820.94H6258.68V941H6247.18V820.94ZM6252.93 791.73C6250.33 791.73 6248.1 790.887 6246.26 789.2C6244.42 787.36 6243.5 785.137 6243.5 782.53C6243.5 779.923 6244.42 777.7 6246.26 775.86C6248.1 774.02 6250.33 773.1 6252.93 773.1C6255.54 773.1 6257.76 774.02 6259.6 775.86C6261.44 777.547 6262.36 779.693 6262.36 782.3C6262.36 784.907 6261.44 787.13 6259.6 788.97C6257.76 790.81 6255.54 791.73 6252.93 791.73ZM6352.92 941.92C6341.58 941.92 6331.3 939.313 6322.1 934.1C6313.06 928.887 6305.93 921.68 6300.71 912.48C6295.5 903.127 6292.89 892.623 6292.89 880.97C6292.89 869.317 6295.5 858.89 6300.71 849.69C6305.93 840.337 6313.06 833.053 6322.1 827.84C6331.3 822.627 6341.58 820.02 6352.92 820.02C6364.27 820.02 6374.47 822.627 6383.51 827.84C6392.71 833.053 6399.92 840.337 6405.13 849.69C6410.35 858.89 6412.95 869.317 6412.95 880.97C6412.95 892.623 6410.35 903.127 6405.13 912.48C6399.92 921.68 6392.71 928.887 6383.51 934.1C6374.47 939.313 6364.27 941.92 6352.92 941.92ZM6352.92 931.57C6362.12 931.57 6370.33 929.423 6377.53 925.13C6384.89 920.837 6390.64 914.857 6394.78 907.19C6399.08 899.523 6401.22 890.783 6401.22 880.97C6401.22 871.157 6399.08 862.417 6394.78 854.75C6390.64 847.083 6384.89 841.103 6377.53 836.81C6370.33 832.517 6362.12 830.37 6352.92 830.37C6343.72 830.37 6335.44 832.517 6328.08 836.81C6320.88 841.103 6315.13 847.083 6310.83 854.75C6306.69 862.417 6304.62 871.157 6304.62 880.97C6304.62 890.783 6306.69 899.523 6310.83 907.19C6315.13 914.857 6320.88 920.837 6328.08 925.13C6335.44 929.423 6343.72 931.57 6352.92 931.57ZM6506.13 820.02C6521.16 820.02 6533.04 824.39 6541.78 833.13C6550.52 841.87 6554.89 854.443 6554.89 870.85V941H6543.39V871.77C6543.39 858.277 6539.94 848.003 6533.04 840.95C6526.29 833.897 6516.79 830.37 6504.52 830.37C6490.41 830.37 6479.3 834.587 6471.17 843.02C6463.04 851.453 6458.98 862.8 6458.98 877.06V941H6447.48V820.94H6458.52V846.93C6462.66 838.497 6468.79 831.903 6476.92 827.15C6485.2 822.397 6494.94 820.02 6506.13 820.02ZM6599.71 941.92C6597.1 941.92 6594.8 941 6592.81 939.16C6590.97 937.167 6590.05 934.79 6590.05 932.03C6590.05 929.27 6590.97 926.97 6592.81 925.13C6594.8 923.29 6597.1 922.37 6599.71 922.37C6602.31 922.37 6604.54 923.29 6606.38 925.13C6608.37 926.97 6609.37 929.27 6609.37 932.03C6609.37 934.79 6608.37 937.167 6606.38 939.16C6604.54 941 6602.31 941.92 6599.71 941.92Z" fill="white"/>
<line x1="892" y1="269.5" x2="4411" y2="269.5" stroke="white" stroke-width="11"/>
<line x1="892" y1="1012.5" x2="4411" y2="1012.5" stroke="white" stroke-width="11"/>
<line x1="892" y1="634.5" x2="4411" y2="634.5" stroke="white" stroke-width="11"/>
</svg>
